<?xml version="1.0" standalone="no"?>
<!DOCTYPE svg PUBLIC "-//W3C//DTD SVG 20010904//EN"
 "http://www.w3.org/TR/2001/REC-SVG-20010904/DTD/svg10.dtd">
<svg version="1.0" xmlns="http://www.w3.org/2000/svg"
 width="152.000000pt" height="181.000000pt" viewBox="0 0 152.000000 181.000000"
 preserveAspectRatio="xMidYMid meet">

<g transform="translate(0.000000,181.000000) scale(0.100000,-0.100000)"
fill="#000000" stroke="none">
<path d="M615 1656 c-49 -21 -92 -78 -105 -139 -16 -77 8 -184 69 -312 65
-136 119 -205 247 -315 139 -119 213 -197 272 -285 52 -78 97 -193 107 -278 9
-68 26 -74 54 -19 19 38 71 177 71 191 0 23 -151 203 -270 322 -76 75 -158
169 -184 207 -86 130 -158 302 -191 457 -23 110 -16 128 14 35 73 -226 196
-392 485 -659 96 -89 178 -161 182 -161 13 0 -6 193 -26 275 -28 111 -88 230
-170 340 -73 96 -200 223 -278 277 -101 70 -208 94 -277 64z"/>
<path d="M322 1514 c-82 -81 -138 -185 -149 -271 l-6 -51 89 18 c49 10 107 26
129 35 35 15 38 15 26 1 -18 -21 -122 -70 -193 -90 l-58 -17 0 -69 c0 -42 4
-70 10 -70 36 0 219 151 248 205 23 40 12 -10 -13 -64 -35 -74 -72 -118 -154
-181 -69 -53 -71 -56 -66 -91 7 -49 52 -183 83 -244 84 -169 289 -377 444
-451 l37 -17 47 29 c53 33 101 94 110 141 5 26 2 34 -19 48 -25 16 -29 15
-114 -19 -120 -47 -130 -50 -162 -36 -32 13 -51 47 -51 91 0 24 -6 32 -30 40
-22 8 -30 17 -30 35 0 15 -6 24 -15 24 -14 0 -20 14 -27 65 -2 14 -17 24 -50
35 -74 24 -76 30 -38 104 35 69 34 96 -2 96 -17 0 -19 3 -10 12 16 16 15 67
-3 101 -14 28 -13 31 20 71 47 58 77 131 78 191 1 28 -9 104 -21 170 -12 66
-25 145 -30 175 l-8 55 -72 -71z"/>
<path d="M505 998 c-43 -9 -75 -39 -75 -69 0 -24 2 -24 46 6 21 14 48 28 61
31 22 6 32 28 16 37 -5 2 -26 0 -48 -5z"/>
<path d="M595 879 c-37 -24 -74 -24 -91 -1 -13 16 -13 16 -14 -2 0 -11 -7 -28
-17 -38 -15 -17 -14 -18 26 -18 48 0 85 17 120 54 29 30 18 33 -24 5z"/>
</g>
</svg>
